<svg xmlns="http://www.w3.org/2000/svg" xmlns:xlink="http://www.w3.org/1999/xlink" id="图层_1" data-name="图层 1" viewBox="0 0 947.58 932.8"><defs><style>.cls-1,.cls-10,.cls-4{fill:none}.cls-2{fill:url(#未命名的渐变)}.cls-3{fill:#fff}.cls-4{stroke:#3c3c41;stroke-miterlimit:10}.cls-5{fill:#3c3c41}.cls-6{fill:url(#未命名的渐变_2)}.cls-7{fill:#2e76bc}.cls-13,.cls-14,.cls-7,.cls-8{isolation:isolate}.cls-13,.cls-14,.cls-7{opacity:.5}.cls-8{fill:#505150;opacity:.14}.cls-9{clip-path:url(#clip-path)}.cls-10{stroke:#a5def3;stroke-width:.5px}.cls-11{clip-path:url(#clip-path-2)}.cls-12{clip-path:url(#clip-path-3)}.cls-13{fill:#8bb6e1}.cls-14{fill:#fee452}.cls-15,.cls-16,.cls-17{font-size:14px}.cls-15,.cls-16{fill:#303030;font-family:SegoeUI,Segoe UI}.cls-16{fill:#161616}.cls-17{fill:#2d2d2d;font-family:SegoeUI-Bold,Segoe UI;font-weight:700}.cls-18{letter-spacing:-.01em}.cls-19,.cls-20{letter-spacing:0}.cls-21{letter-spacing:-.01em}.cls-22{letter-spacing:0}.cls-23{letter-spacing:-.02em}.cls-24{letter-spacing:-.07em}</style><linearGradient id="未命名的渐变" x1="8.48" x2="16.52" y1="1.46" y2="23.54" gradientUnits="userSpaceOnUse"><stop offset="0" stop-color="#0078d4"/><stop offset=".16" stop-color="#1380da"/><stop offset=".53" stop-color="#3c91e5"/><stop offset=".82" stop-color="#559cec"/><stop offset="1" stop-color="#5ea0ef"/></linearGradient><linearGradient id="未命名的渐变_2" x1="432.5" x2="440.54" y1="793.3" y2="815.38" gradientTransform="matrix(0.71, 0.71, 0.71, -0.71, -440.9, 387.64)" xlink:href="#未命名的渐变"/><clipPath id="clip-path" transform="translate(0 0)"><rect width="146.3" height="44" x="262.31" y="638.83" class="cls-1"/></clipPath><clipPath id="clip-path-2" transform="translate(0 0)"><rect width="146.3" height="44" x="592.81" y="521.67" class="cls-1"/></clipPath><clipPath id="clip-path-3" transform="translate(0 0)"><rect width="94.85" height="70.02" x="784.75" y="558.12" class="cls-1"/></clipPath><symbol id="Flow_chart" data-name="Flow chart" viewBox="0 0 25 25"><polygon points="12.5 25 25 12.5 12.5 0 0 12.5 12.5 25" class="cls-2"/></symbol></defs><rect width="888.8" height="932.8" class="cls-3"/><use width="25" height="25" transform="matrix(1, 0, 0, -1, 303.86, 377.45)" xlink:href="#Flow_chart"/><path d="M215.92,199.7H162.71a5,5,0,0,0-5,5v140" class="cls-4" transform="translate(0 0)"/><polygon points="153.97 343.57 157.71 350.05 161.45 343.57 153.97 343.57" class="cls-5"/><path d="M79.39,365.65h-28a5,5,0,0,0-5,5V642.11" class="cls-4" transform="translate(0 0)"/><polygon points="42.6 641.01 46.34 647.49 50.08 641.01 42.6 641.01" class="cls-5"/><line x1="116.14" x2="142.11" y1="365.65" y2="365.65" class="cls-4"/><path d="M708.67,199.7h49.62a5,5,0,0,1,5,5V640.47" class="cls-4" transform="translate(0 0)"/><polygon points="759.55 639.37 763.29 645.85 767.03 639.37 759.55 639.37" class="cls-5"/><line x1="674.01" x2="623.01" y1="199.7" y2="199.7" class="cls-4"/><path d="M410.3,365.65h34.64a5,5,0,0,1,5,5v45.14" class="cls-4" transform="translate(0 0)"/><polygon points="446.2 414.69 449.94 421.17 453.68 414.69 446.2 414.69" class="cls-5"/><line x1="374.4" x2="330.16" y1="365.65" y2="365.65" class="cls-4"/><path d="M671.59,365.65h30.2a5,5,0,0,1,5,5V514.52" class="cls-4" transform="translate(0 0)"/><polygon points="703.05 513.42 706.79 519.9 710.53 513.42 703.05 513.42" class="cls-5"/><line x1="647.66" x2="623.37" y1="365.65" y2="365.65" class="cls-4"/><path d="M240.71,489.22h36.63a5,5,0,0,1,5,5v138" class="cls-4" transform="translate(0 0)"/><polygon points="278.6 631.18 282.34 637.66 286.08 631.18 278.6 631.18" class="cls-5"/><line x1="210.51" x2="173.19" y1="489.22" y2="489.22" class="cls-4"/><rect width="17.68" height="17.68" x="427.68" y="118.71" class="cls-6" transform="translate(37.66 346.02) rotate(-45)"/><use width="25" height="25" transform="matrix(1, 0, 0, -1, 303.86, 211.5)" xlink:href="#Flow_chart"/><use width="25" height="25" transform="matrix(1, 0, 0, -1, 145.21, 377.45)" xlink:href="#Flow_chart"/><use width="25" height="25" transform="matrix(1, 0, 0, -1, 33.84, 673.65)" xlink:href="#Flow_chart"/><use width="25" height="25" transform="matrix(1, 0, 0, -1, 33.84, 761.2)" xlink:href="#Flow_chart"/><line x1="787.33" x2="777.81" y1="660.85" y2="660.85" class="cls-4"/><path d="M821.76,660.85h5.66a5,5,0,0,0,5-5V635.08" class="cls-4" transform="translate(0 0)"/><polygon points="836.16 636.18 832.42 629.7 828.68 636.18 836.16 636.18" class="cls-5"/><line x1="436.52" x2="436.52" y1="62.85" y2="105.87" class="cls-4"/><polygon points="432.78 104.77 436.52 111.25 440.26 104.77 432.78 104.77" class="cls-5"/><line x1="316.3" x2="316.3" y1="213.93" y2="344.67" class="cls-4"/><polygon points="312.56 343.57 316.3 350.05 320.04 343.57 312.56 343.57" class="cls-5"/><use width="25" height="25" transform="matrix(1, 0, 0, -1, 145.21, 501.55)" xlink:href="#Flow_chart"/><line x1="157.71" x2="157.71" y1="379.25" y2="468.76" class="cls-4"/><polygon points="153.97 467.66 157.71 474.14 161.45 467.66 153.97 467.66" class="cls-5"/><line x1="157.71" x2="157.71" y1="503.89" y2="538.67" class="cls-4"/><polygon points="153.97 537.57 157.71 544.05 161.45 537.57 153.97 537.57" class="cls-5"/><use width="25" height="25" transform="matrix(1, 0, 0, -1, 595.35, 377.45)" xlink:href="#Flow_chart"/><use width="25" height="25" transform="matrix(1, 0, 0, -1, 751.23, 849.2)" xlink:href="#Flow_chart"/><use width="25" height="25" transform="matrix(1, 0, 0, -1, 751.23, 673.65)" xlink:href="#Flow_chart"/><line x1="607.9" x2="607.9" y1="214.04" y2="345.64" class="cls-4"/><polygon points="604.16 344.54 607.9 351.02 611.64 344.54 604.16 344.54" class="cls-5"/><line x1="763.73" x2="763.73" y1="678.02" y2="729.97" class="cls-4"/><polygon points="759.99 728.87 763.73 735.35 767.47 728.87 759.99 728.87" class="cls-5"/><line x1="607.9" x2="607.9" y1="378.85" y2="415.79" class="cls-4"/><polygon points="604.16 414.69 607.9 421.17 611.64 414.69 604.16 414.69" class="cls-5"/><rect width="246.31" height="44" x="313.36" y="18.85" class="cls-3" rx="10"/><rect width="246.31" height="44" x="313.36" y="18.85" class="cls-7" rx="10"/><line x1="316.3" x2="316.3" y1="378.85" y2="632.27" class="cls-4"/><polygon points="312.56 631.18 316.3 637.66 320.04 631.18 312.56 631.18" class="cls-5"/><rect width="146.3" height="44" x="262.31" y="638.83" class="cls-3"/><rect width="146.3" height="44" x="262.31" y="638.83" class="cls-8"/><g class="cls-9"><line x1="305.25" x2="365.67" y1="713.15" y2="608.5" class="cls-10"/><line x1="315.25" x2="375.67" y1="713.15" y2="608.5" class="cls-10"/><line x1="325.25" x2="385.67" y1="713.15" y2="608.5" class="cls-10"/><line x1="335.25" x2="395.67" y1="713.15" y2="608.5" class="cls-10"/><line x1="345.25" x2="405.67" y1="713.15" y2="608.5" class="cls-10"/><line x1="355.25" x2="415.67" y1="713.15" y2="608.5" class="cls-10"/><line x1="365.25" x2="425.67" y1="713.15" y2="608.5" class="cls-10"/><line x1="375.25" x2="435.67" y1="713.15" y2="608.5" class="cls-10"/><line x1="385.25" x2="445.67" y1="713.15" y2="608.5" class="cls-10"/><line x1="395.25" x2="455.67" y1="713.15" y2="608.5" class="cls-10"/><line x1="214.04" x2="274.46" y1="713.15" y2="608.5" class="cls-10"/><line x1="224.04" x2="284.46" y1="713.15" y2="608.5" class="cls-10"/><line x1="234.04" x2="294.46" y1="713.15" y2="608.5" class="cls-10"/><line x1="244.04" x2="304.46" y1="713.15" y2="608.5" class="cls-10"/><line x1="254.04" x2="314.46" y1="713.15" y2="608.5" class="cls-10"/><line x1="264.04" x2="324.46" y1="713.15" y2="608.5" class="cls-10"/><line x1="274.04" x2="334.46" y1="713.15" y2="608.5" class="cls-10"/><line x1="284.04" x2="344.46" y1="713.15" y2="608.5" class="cls-10"/><line x1="294.04" x2="354.46" y1="713.15" y2="608.5" class="cls-10"/></g><rect width="146.3" height="44" x="592.81" y="521.67" class="cls-3"/><rect width="146.3" height="44" x="592.81" y="521.67" class="cls-8"/><g class="cls-11"><line x1="635.75" x2="696.17" y1="596" y2="491.35" class="cls-10"/><line x1="645.75" x2="706.17" y1="596" y2="491.35" class="cls-10"/><line x1="655.75" x2="716.17" y1="596" y2="491.35" class="cls-10"/><line x1="665.75" x2="726.17" y1="596" y2="491.35" class="cls-10"/><line x1="675.75" x2="736.17" y1="596" y2="491.35" class="cls-10"/><line x1="685.75" x2="746.17" y1="596" y2="491.35" class="cls-10"/><line x1="695.75" x2="756.17" y1="596" y2="491.35" class="cls-10"/><line x1="705.75" x2="766.17" y1="596" y2="491.35" class="cls-10"/><line x1="715.75" x2="776.17" y1="596" y2="491.35" class="cls-10"/><line x1="725.75" x2="786.17" y1="596" y2="491.35" class="cls-10"/><line x1="544.54" x2="604.96" y1="596" y2="491.35" class="cls-10"/><line x1="554.54" x2="614.96" y1="596" y2="491.35" class="cls-10"/><line x1="564.54" x2="624.96" y1="596" y2="491.35" class="cls-10"/><line x1="574.54" x2="634.96" y1="596" y2="491.35" class="cls-10"/><line x1="584.54" x2="644.96" y1="596" y2="491.35" class="cls-10"/><line x1="594.54" x2="654.96" y1="596" y2="491.35" class="cls-10"/><line x1="604.54" x2="664.96" y1="596" y2="491.35" class="cls-10"/><line x1="614.54" x2="674.96" y1="596" y2="491.35" class="cls-10"/><line x1="624.54" x2="684.96" y1="596" y2="491.35" class="cls-10"/></g><rect width="94.85" height="70.02" x="784.75" y="558.12" class="cls-3"/><rect width="94.85" height="70.02" x="784.75" y="558.12" class="cls-8"/><g class="cls-12"><line x1="806.95" x2="867.37" y1="640.73" y2="545.54" class="cls-10"/><line x1="816.95" x2="877.37" y1="640.73" y2="545.54" class="cls-10"/><line x1="826.95" x2="887.37" y1="640.73" y2="545.54" class="cls-10"/><line x1="836.95" x2="897.37" y1="640.73" y2="545.54" class="cls-10"/><line x1="846.95" x2="907.37" y1="640.73" y2="545.54" class="cls-10"/><line x1="856.95" x2="917.37" y1="640.73" y2="545.54" class="cls-10"/><line x1="866.95" x2="927.37" y1="640.73" y2="545.54" class="cls-10"/><line x1="876.95" x2="937.37" y1="640.73" y2="545.54" class="cls-10"/><line x1="886.95" x2="947.37" y1="640.73" y2="545.54" class="cls-10"/><line x1="715.74" x2="776.16" y1="640.73" y2="545.54" class="cls-10"/><line x1="725.74" x2="786.16" y1="640.73" y2="545.54" class="cls-10"/><line x1="735.74" x2="796.16" y1="640.73" y2="545.54" class="cls-10"/><line x1="745.74" x2="806.16" y1="640.73" y2="545.54" class="cls-10"/><line x1="755.74" x2="816.16" y1="640.73" y2="545.54" class="cls-10"/><line x1="765.74" x2="826.16" y1="640.73" y2="545.54" class="cls-10"/><line x1="775.74" x2="836.16" y1="640.73" y2="545.54" class="cls-10"/><line x1="785.74" x2="846.16" y1="640.73" y2="545.54" class="cls-10"/><line x1="795.74" x2="856.16" y1="640.73" y2="545.54" class="cls-10"/></g><rect width="141.9" height="34.95" x="86.9" y="545.85" class="cls-3"/><rect width="141.9" height="34.95" x="86.9" y="545.85" class="cls-13"/><rect width="141.9" height="34.95" x="12.7" y="818.65" class="cls-3"/><rect width="141.9" height="34.95" x="12.7" y="818.65" class="cls-14"/><rect width="141.9" height="34.95" x="378.4" y="422.4" class="cls-3"/><rect width="141.9" height="34.95" x="378.4" y="422.4" class="cls-13"/><rect width="141.9" height="34.95" x="537.7" y="422.4" class="cls-3"/><rect width="141.9" height="34.95" x="537.7" y="422.4" class="cls-13"/><path d="M554.4,422.4V370.65a5,5,0,0,1,5-5h28.26" class="cls-4" transform="translate(0 0)"/><polygon points="586.56 369.39 593.04 365.65 586.56 361.91 586.56 369.39" class="cls-5"/><path d="M378.4,440H364.71a5,5,0,0,1-5-5V399.6a10.37,10.37,0,0,0-4.18-7.75l-24.65-16.23" class="cls-4" transform="translate(0 0)"/><polygon points="333.85 373.1 326.38 372.66 329.73 379.35 333.85 373.1" class="cls-5"/><line x1="262.31" x2="66.69" y1="660.69" y2="660.69" class="cls-4"/><polygon points="67.79 656.95 61.31 660.69 67.79 664.43 67.79 656.95" class="cls-5"/><path d="M193.42,699.25H706.71a21,21,0,0,0,9.26-2.6l36.57-22.29" class="cls-4" transform="translate(0 0)"/><polygon points="753.55 678.12 757.14 671.56 749.66 671.73 753.55 678.12" class="cls-5"/><path d="M159.7,699.25H100.79a8.14,8.14,0,0,1-3.69-1.08L54.63,671" class="cls-4" transform="translate(0 0)"/><path d="M665.54,565.67v18.58a10.51,10.51,0,0,0,4.15,7.79l81.66,54.85" class="cls-4" transform="translate(0 0)"/><polygon points="748.36 649.38 755.82 649.89 752.53 643.17 748.36 649.38" class="cls-5"/><line x1="251.53" x2="300.44" y1="199.7" y2="199.7" class="cls-4"/><path d="M353.56,127.52h-31.2a5,5,0,0,0-5,5v47.2" class="cls-4" transform="translate(0 0)"/><polygon points="313.62 178.63 317.36 185.1 321.1 178.63 313.62 178.63" class="cls-5"/><line x1="385.76" x2="419.4" y1="127.52" y2="127.52" class="cls-4"/><use width="25" height="25" transform="matrix(1, 0, 0, -1, 595.35, 212.28)" xlink:href="#Flow_chart"/><path d="M524.24,127.52h78.52a5,5,0,0,1,5,5v47.2" class="cls-4" transform="translate(0 0)"/><polygon points="604.02 178.63 607.76 185.1 611.5 178.63 604.02 178.63" class="cls-5"/><line x1="453.84" x2="484.56" y1="127.52" y2="127.52" class="cls-4"/><line x1="46.34" x2="46.34" y1="678.58" y2="728.07" class="cls-4"/><polygon points="42.6 726.97 46.34 733.45 50.08 726.97 42.6 726.97" class="cls-5"/><line x1="46.34" x2="46.34" y1="762.76" y2="813.27" class="cls-4"/><polygon points="42.6 812.17 46.34 818.65 50.08 812.17 42.6 812.17" class="cls-5"/><use width="25" height="25" transform="matrix(1, 0, 0, -1, 433.39, 849.2)" xlink:href="#Flow_chart"/><path d="M96.8,544.05V494.22a5,5,0,0,1,5-5h34.93" class="cls-4" transform="translate(0 0)"/><polygon points="135.63 492.96 142.11 489.22 135.63 485.48 135.63 492.96" class="cls-5"/><path d="M445.79,813V788a5,5,0,0,1,5-5H727.71a11.71,11.71,0,0,0,8.09-3.92l17.74-22.48" class="cls-4" transform="translate(0 0)"/><polygon points="449.53 811.92 445.79 818.4 442.05 811.92 449.53 811.92" class="cls-5"/><line x1="763.73" x2="763.73" y1="764.6" y2="813.02" class="cls-4"/><polygon points="759.99 811.92 763.73 818.4 767.47 811.92 759.99 811.92" class="cls-5"/><use width="25" height="25" transform="matrix(1, 0, 0, -1, 751.23, 760.9)" xlink:href="#Flow_chart"/><rect width="141.9" height="34.95" x="692.78" y="888.8" class="cls-3"/><rect width="141.9" height="34.95" x="692.78" y="888.8" class="cls-14"/><rect width="141.9" height="34.95" x="374.94" y="888.8" class="cls-3"/><rect width="141.9" height="34.95" x="374.94" y="888.8" class="cls-14"/><line x1="445.89" x2="445.89" y1="853.6" y2="883.42" class="cls-4"/><polygon points="442.15 882.32 445.89 888.8 449.63 882.32 442.15 882.32" class="cls-5"/><line x1="763.73" x2="763.73" y1="851.12" y2="883.42" class="cls-4"/><polygon points="759.99 882.32 763.73 888.8 767.47 882.32 759.99 882.32" class="cls-5"/><path d="M765.6,852.16h52.2a5,5,0,0,0,5-5V841a5,5,0,0,0-5-5H784.18" class="cls-4" transform="translate(0 0)"/><polygon points="785.28 832.26 778.8 836 785.28 839.74 785.28 832.26" class="cls-5"/><path d="M449.35,852.16h52.2a5,5,0,0,0,5-5V841a5,5,0,0,0-5-5H467.93" class="cls-4" transform="translate(0 0)"/><polygon points="469.03 832.26 462.55 836 469.03 839.74 469.03 832.26" class="cls-5"/><path d="M44,764H9.1a3,3,0,0,1-3-3v-9.16a3,3,0,0,1,3-3H26.72" class="cls-4" transform="translate(0 0)"/><polygon points="25.63 752.62 32.11 748.88 25.63 745.14 25.63 752.62" class="cls-5"/><text class="cls-15" transform="translate(737.23 910.94)">Öğeyi sil</text><text class="cls-15" transform="translate(420 910.85)">Öğeyi sil</text><text class="cls-15" transform="translate(57.29 840.72)">Öğeyi sil</text><text class="cls-15" transform="translate(285.5 664.45)">Öğe saklanmadı</text><text class="cls-15" transform="translate(615.92 547.87)">Öğe saklanmadı</text><text class="cls-15" transform="translate(809.57 582.49)">Öğe ne <tspan x="-11.99" y="16.8">saklandı ne </tspan><tspan x="-4.94" y="33.6">de silindi</tspan></text><text class="cls-15" transform="translate(563.81 444.15)">Öğeyi saklama</text><text class="cls-15" transform="translate(404.48 444.15)">Öğeyi saklama</text><text class="cls-15" transform="translate(112.98 567.59)">Öğeyi saklama</text><text class="cls-16" transform="translate(769.91 875.6)">Evet</text><text class="cls-16" transform="translate(827.57 848.22)">Hayır</text><text class="cls-16" transform="translate(769.91 803)">Evet</text><text class="cls-16" transform="translate(769.91 704.45)">Evet</text><text class="cls-16" transform="translate(787.86 663.93)">Hayır</text><text class="cls-16" transform="translate(453.33 875.6)">Evet</text><text class="cls-16" transform="translate(511.33 848.22)">Hayır</text><text class="cls-16" transform="translate(453.33 802.56)">Hayır</text><text class="cls-16" transform="translate(52.62 803.01)">Evet</text><text class="cls-16" transform="translate(8.54 779.76)">Hayır</text><text class="cls-16" transform="translate(52.62 712.5)">Evet</text><text class="cls-16" transform="translate(164.19 519.99)">Hayır</text><text class="cls-16" transform="translate(375.64 369.38)">Hayır</text><text class="cls-16" transform="translate(613.77 397.69)">Hayır</text><text class="cls-16" transform="translate(645.72 369.37)">Evet</text><text class="cls-16" transform="translate(674.69 204.5)">Hayır</text><text class="cls-16" transform="translate(613.78 233.56)">Evet</text><text class="cls-16" transform="translate(81.29 369.5)">Hayır</text><text class="cls-16" transform="translate(164.18 397.53)">Evet</text><text class="cls-16" transform="translate(216.92 204.56)">Hayır</text><text class="cls-16" transform="translate(283.05 233.56)">Evet</text><text class="cls-16" transform="translate(488.14 131.41)">Hayır</text><text class="cls-16" transform="translate(356.15 131.25)">Evet</text><text class="cls-17" transform="translate(591.32 815.23)">Kapsamlı tüm il<tspan x="102.2" y="0" class="cls-18">k</tspan><tspan x="109.83" y="0">ele</tspan><tspan x="128.95" y="0" class="cls-19">r</tspan><tspan x="134.47" y="0">de </tspan><tspan x="28.68" y="17">öğenin en kısa son </tspan><tspan x="18.06" y="34">kullanma ta</tspan><tspan x="95.52" y="34" class="cls-20">r</tspan><tspan x="101.14" y="34">ihinden </tspan><tspan x="87.62" y="51">sonra mı?</tspan></text><text class="cls-17" transform="translate(198.29 833.3)">Öğenin tüm il<tspan x="90.19" y="0" class="cls-18">k</tspan><tspan x="97.82" y="0">ele</tspan><tspan x="116.95" y="0" class="cls-19">r</tspan><tspan x="122.47" y="0">deki en kısa son </tspan><tspan x="27.23" y="17">kullanma ta</tspan><tspan x="104.69" y="17" class="cls-20">r</tspan><tspan x="110.31" y="17">ihinden sonra mı?</tspan></text><text class="cls-17" transform="translate(471.23 732.91)"><tspan class="cls-21">K</tspan><tspan x="8.95" y="0">onum için tüm ö</tspan><tspan x="117.3" y="0" class="cls-22">r</tspan><tspan x="122.91" y="0">nekler </tspan><tspan x="167.77" y="0" class="cls-21">y</tspan><tspan x="175.16" y="0">e</tspan><tspan x="182.74" y="0" class="cls-20">r</tspan><tspan x="188.36" y="0">ine he</tspan><tspan x="228.25" y="0" class="cls-22">r</tspan><tspan x="233.86" y="0">hangi </tspan><tspan x="19.75" y="17">bir bekletme il</tspan><tspan x="115.14" y="17" class="cls-18">k</tspan><tspan x="122.77" y="17">esinin kapsamı </tspan><tspan x="223.67" y="17" class="cls-23">v</tspan><tspan x="231.04" y="17">ar mı?</tspan></text><text class="cls-17" transform="translate(519.58 654.99)">Öğele<tspan x="38.4" y="0" class="cls-20">r</tspan><tspan x="44.03" y="0">i silmek için yapılandırılmış </tspan><tspan x="-12.5" y="17">he</tspan><tspan x="3.5" y="17" class="cls-22">r</tspan><tspan x="9.11" y="17">hangi bir bekletme il</tspan><tspan x="145.45" y="17" class="cls-18">k</tspan><tspan x="153.08" y="17">esi </tspan><tspan x="174.65" y="17" class="cls-23">v</tspan><tspan x="182.03" y="17">ar mı?</tspan></text><text class="cls-17" transform="translate(61.75 744.18)">Öğenin eti<tspan x="68.63" y="0" class="cls-18">k</tspan><tspan x="76.26" y="0">et</tspan><tspan x="89.28" y="0" class="cls-19">t</tspan><tspan x="94.68" y="0">eki son </tspan><tspan x="0" y="17">kullanma ta</tspan><tspan x="77.46" y="17" class="cls-20">r</tspan><tspan x="83.08" y="17">ihinden sonra mı?</tspan></text><text class="cls-17" transform="translate(61.8 615.7)">Bekletme eti<tspan x="82.64" y="0" class="cls-18">k</tspan><tspan x="90.27" y="0">eti, </tspan><tspan x="0" y="17">öğele</tspan><tspan x="36.35" y="17" class="cls-20">r</tspan><tspan x="41.97" y="17">i silecek şekilde </tspan><tspan x="0" y="34">yapılandırılmış mı?</tspan></text><text class="cls-17" transform="translate(171.57 294.87)">Bekletme eti<tspan x="82.64" y="0" class="cls-18">k</tspan><tspan x="90.27" y="0">eti, </tspan><tspan x="0" y="17">öğele</tspan><tspan x="36.35" y="17" class="cls-20">r</tspan><tspan x="41.97" y="17">i saklayacak </tspan><tspan x="0" y="34">şekilde </tspan><tspan x="0" y="51">yapılandırılmış mı?</tspan></text><text class="cls-17" transform="translate(330.42 294.87)">U<tspan x="10.12" y="0" class="cls-21">y</tspan><tspan x="17.52" y="0">gulanan eti</tspan><tspan x="91.51" y="0" class="cls-18">k</tspan><tspan x="99.13" y="0">et</tspan><tspan x="112.16" y="0" class="cls-19">t</tspan><tspan x="117.55" y="0">en </tspan><tspan x="137.46" y="0" class="cls-21">v</tspan><tspan x="144.91" y="0">e </tspan><tspan x="0" y="17">tüm il</tspan><tspan x="38.56" y="17" class="cls-18">k</tspan><tspan x="46.19" y="17">ele</tspan><tspan x="65.32" y="17" class="cls-19">r</tspan><tspan x="70.83" y="17">den: Öğe için </tspan><tspan x="0" y="34">en uzun bekletme </tspan><tspan x="0" y="51">sü</tspan><tspan x="14.63" y="51" class="cls-19">r</tspan><tspan x="20.15" y="51">esinden sonra mı?</tspan></text><text class="cls-17" transform="translate(620.8 278.2)"><tspan class="cls-24">T</tspan><tspan x="7.24" y="0">üm il</tspan><tspan x="40.35" y="0" class="cls-18">k</tspan><tspan x="47.98" y="0">ele</tspan><tspan x="67.11" y="0" class="cls-19">r</tspan><tspan x="72.63" y="0">den: </tspan><tspan x="0" y="17">öğe için en </tspan><tspan x="0" y="34">uzun bekletme </tspan><tspan x="0" y="51">sü</tspan><tspan x="14.63" y="51" class="cls-19">r</tspan><tspan x="20.15" y="51">esinden </tspan><tspan x="0" y="68">sonra mı?</tspan></text><text class="cls-17" transform="translate(621 145.36)">Öğele<tspan x="38.4" y="0" class="cls-20">r</tspan><tspan x="44.03" y="0">i saklamak için </tspan><tspan x="0" y="17">yapılandırılmış bir </tspan><tspan x="0" y="34">bekletme il</tspan><tspan x="73.3" y="34" class="cls-18">k</tspan><tspan x="80.93" y="34">esi </tspan><tspan x="102.5" y="34" class="cls-23">v</tspan><tspan x="109.88" y="34">ar mı?</tspan></text><text class="cls-17" transform="translate(164.02 145.36)">Öğele<tspan x="38.4" y="0" class="cls-20">r</tspan><tspan x="44.03" y="0">i saklamak için </tspan><tspan x="-44.19" y="17">yapılandırılmış bir bekletme </tspan><tspan x="55.66" y="34">il</tspan><tspan x="63.62" y="34" class="cls-18">k</tspan><tspan x="71.24" y="34">esi </tspan><tspan x="92.82" y="34" class="cls-23">v</tspan><tspan x="100.19" y="34">ar mı?</tspan></text><text class="cls-17" transform="translate(451.14 111.37)">Bir bekletme eti<tspan x="104.73" y="0" class="cls-18">k</tspan><tspan x="112.36" y="0">eti u</tspan><tspan x="141.7" y="0" class="cls-21">y</tspan><tspan x="149.09" y="0">gulandı mı?</tspan></text><text class="cls-17" transform="translate(322.93 37.02)">Bir öğenin ne zaman saklanacağını <tspan x="27.05" y="17" class="cls-21">v</tspan><tspan x="34.5" y="17">eya silineceğini belirleme</tspan></text><text class="cls-16" transform="translate(159.73 702.37)">Hayır</text><text class="cls-16" transform="translate(212.15 494.01)">Evet</text><text class="cls-16" transform="translate(282.76 397.68)">Evet</text><text class="cls-17" transform="translate(171.46 437.4)">Öğe için eti<tspan x="74.72" y="0" class="cls-18">k</tspan><tspan x="82.35" y="0">et </tspan><tspan x="0" y="17">bekletme sü</tspan><tspan x="79.97" y="17" class="cls-19">r</tspan><tspan x="85.49" y="17">esinden </tspan><tspan x="0" y="34">sonra mı?</tspan></text></svg>